<mxfile host="app.diagrams.net" modified="2024-03-22T06:30:28.750Z" agent="Mozilla/5.0 (Windows NT 10.0; Win64; x64) AppleWebKit/537.36 (KHTML, like Gecko) Chrome/123.0.0.0 Safari/537.36" version="24.0.7" etag="mi0jM8er6HW7bSnJgfHn" type="github">
  <diagram name="ページ1" id="3KXBfEeWeY8ys-q25r6t">
    <mxGraphModel>
      <root>
        <mxCell id="0" />
        <mxCell id="1" parent="0" />
      </root>
    </mxGraphModel>
  </diagram>
</mxfile>
